<?xml version="1.0" standalone="no"?>
<!DOCTYPE svg PUBLIC "-//W3C//DTD SVG 20010904//EN"
 "http://www.w3.org/TR/2001/REC-SVG-20010904/DTD/svg10.dtd">
<svg version="1.0" xmlns="http://www.w3.org/2000/svg"
 width="5500.000000pt" height="3143.000000pt" viewBox="0 0 5500.000000 3143.000000"
 preserveAspectRatio="xMidYMid meet">
<metadata>
Created by potrace 1.16, written by Peter Selinger 2001-2019
</metadata>
<g transform="translate(0.000000,3143.000000) scale(0.100000,-0.100000)"
fill="#000000" stroke="none">
<path d="M12476 31243 c-3 -104 -9 -1083 -12 -2178 l-6 -1990 92 -125 c230
-310 438 -549 740 -850 428 -429 891 -809 1445 -1184 203 -138 463 -333 630
-472 152 -126 478 -449 586 -579 203 -246 422 -633 479 -845 8 -31 14 -40 20
-30 31 56 321 713 318 720 -2 6 -75 54 -162 108 l-159 97 4 100 c9 226 3 1420
-10 1830 -9 322 -12 925 -9 2247 l3 1806 115 -38 c335 -110 629 -290 881 -540
155 -154 256 -282 402 -510 50 -79 162 -298 212 -415 105 -245 188 -513 253
-810 l37 -170 2 -1847 3 -1848 -44 0 c-25 0 -47 -3 -49 -7 -3 -5 17 -66 44
-137 l49 -128 0 -800 0 -800 -367 7 c-203 4 -370 9 -373 10 -3 2 -159 6 -345
9 -187 4 -365 9 -395 11 -30 3 -139 8 -241 10 l-186 5 -43 -107 c-248 -631
-807 -1233 -1690 -1820 -308 -205 -588 -365 -913 -524 -161 -78 -168 -82 -163
-108 3 -14 8 -119 12 -233 l6 -208 27 0 c14 0 85 4 156 10 484 36 1293 60
2016 60 l566 0 6 83 c4 45 7 256 7 470 l0 387 1448 0 c2088 -1 1892 -2 1892
15 0 13 68 15 553 15 305 0 1196 3 1980 7 l1427 6 0 -25 c0 -19 7 -29 28 -36
15 -5 815 -222 1778 -482 l1752 -473 -32 -96 c-18 -52 -37 -96 -43 -98 -5 -2
-257 77 -559 176 -302 98 -718 234 -924 301 -810 263 -1145 373 -1155 378 -7
3 -7 2 0 -5 6 -5 91 -39 190 -75 99 -37 259 -96 355 -131 370 -137 599 -215
1663 -562 229 -75 417 -141 417 -148 0 -6 -75 -235 -166 -508 -160 -482 -166
-498 -187 -489 -12 4 -415 164 -896 354 -480 190 -878 343 -882 340 -5 -3 -9
-1 -9 4 0 13 -109 53 -122 45 -7 -4 -8 -1 -3 7 5 8 3 11 -6 8 -8 -3 -21 0 -29
7 -15 11 -99 45 -123 49 -6 1 -18 6 -26 10 -10 7 -12 5 -6 -5 4 -8 -2 -4 -15
9 -12 13 -28 21 -36 18 -8 -3 -14 -1 -14 5 0 6 -4 7 -10 4 -5 -3 -10 -1 -10 6
0 10 -3 10 -11 2 -6 -6 -18 -9 -25 -6 -25 9 -15 -6 14 -20 15 -8 37 -13 49
-12 12 1 20 -2 17 -6 -5 -9 60 -39 89 -42 9 -1 17 -5 17 -9 0 -4 9 -8 19 -8
11 0 23 -5 26 -10 5 -8 11 -7 21 1 12 10 15 10 12 -2 -2 -8 4 -13 14 -13 10 1
15 -3 11 -9 -4 -6 0 -8 10 -4 9 3 17 2 19 -2 3 -8 93 -44 1208 -485 382 -151
696 -279 698 -285 2 -6 -40 -137 -92 -292 -53 -155 -96 -287 -96 -294 0 -7 70
-50 155 -94 118 -61 172 -83 223 -92 55 -9 329 -112 467 -175 28 -12 319 -132
425 -174 25 -10 110 -45 190 -78 80 -33 289 -119 465 -192 l320 -131 635 -151
c731 -173 846 -200 1915 -453 435 -102 797 -188 805 -192 8 -3 24 -7 35 -8
134 -19 393 -113 378 -138 -3 -6 -1 -7 5 -3 6 3 50 -13 97 -36 l86 -43 -1253
-5 c-689 -3 -1261 -1 -1272 3 -13 7 -16 6 -11 -3 5 -9 1 -10 -14 -5 -26 8 -28
-6 -1 -22 13 -9 21 -9 26 -2 4 7 16 0 31 -17 16 -19 26 -25 29 -16 8 18 22 15
29 -7 3 -11 19 -22 35 -26 17 -4 30 -11 30 -16 0 -5 4 -9 9 -9 6 0 47 -17 93
-39 46 -21 106 -49 133 -61 28 -12 91 -42 140 -65 50 -23 114 -52 143 -65 28
-12 52 -26 52 -31 0 -5 -91 -10 -202 -11 l-202 -3 471 -215 c404 -184 470
-217 460 -230 -11 -13 -10 -13 7 0 16 13 20 12 31 -3 6 -9 16 -13 21 -9 4 4 2
-1 -5 -11 -8 -9 -11 -21 -7 -24 4 -4 11 -1 15 6 7 11 11 9 20 -8 7 -11 10 -21
9 -21 -2 0 -17 4 -34 9 -26 7 -30 6 -32 -13 -1 -14 1 -17 7 -8 5 8 17 11 33 7
29 -7 47 10 29 28 -29 29 6 29 40 0 9 -8 28 -16 43 -19 20 -3 171 -76 184 -89
1 -1 -9 -1 -23 0 -14 2 -23 -1 -20 -5 3 -5 20 -8 38 -6 50 5 76 -8 70 -36 -3
-13 -1 -19 4 -13 12 15 33 17 47 5 7 -5 16 -8 19 -5 4 3 5 2 2 -2 -9 -11 -44
-10 -39 1 3 6 0 4 -6 -4 -10 -13 -103 -15 -748 -13 -2804 10 -2862 10 -2844
-12 17 -20 17 -20 -4 -3 -11 10 -29 18 -40 19 -19 0 -19 1 0 8 18 7 18 8 -4
29 -13 12 -29 22 -34 22 -6 0 -4 -5 4 -10 15 -10 15 -10 -27 -10 -9 0 -10 5
-12 48 -1 38 -39 57 -78 39 -21 -9 -27 -9 -31 1 -2 6 -10 12 -18 12 -9 0 -12
-5 -8 -12 3 -7 -5 -1 -20 15 -27 28 -43 36 -30 16 4 -7 1 -10 -7 -7 -8 3 -13
11 -12 17 2 6 0 10 -5 10 -20 -3 -40 2 -58 17 -19 15 -18 15 2 5 15 -7 21 -7
21 2 0 7 -12 12 -26 12 -29 -1 -93 31 -246 122 -55 32 -125 72 -155 87 -30 16
-62 34 -71 42 -8 8 -18 14 -21 14 -3 0 -56 29 -117 64 l-111 63 -233 -3 c-127
-2 -272 -5 -322 -8 -49 -3 -283 -9 -520 -12 -236 -4 -433 -8 -436 -10 -3 -2
-118 -4 -255 -5 -137 0 -257 -4 -268 -8 -15 -6 13 -33 145 -147 1691 -1451
3301 -2202 5171 -2414 1753 -198 3376 87 4957 870 547 270 1178 644 1670 989
57 39 104 71 106 69 2 -3 514 -783 823 -1255 l126 -193 3289 -1315 c1809 -724
3291 -1315 3292 -1313 4 4 616 1251 618 1259 2 5 -356 476 -388 512 -6 7 -100
127 -208 267 -108 140 -207 268 -219 284 -36 46 -117 150 -126 161 -5 6 -40
51 -78 101 -38 50 -139 180 -225 290 -86 109 -171 220 -190 245 -19 25 -63 83
-99 129 -36 46 -76 98 -90 116 -52 69 -115 149 -120 154 -3 3 -25 31 -49 63
-24 32 -51 62 -60 67 -14 7 -275 109 -611 239 -162 63 -412 160 -570 221 -279
109 -632 245 -750 290 -118 45 -269 103 -440 171 -66 25 -315 122 -720 278
-244 95 -447 173 -620 241 -96 38 -317 123 -490 190 -173 68 -321 125 -327
127 -20 8 -16 17 15 35 15 9 38 27 52 40 14 13 68 57 120 98 52 41 205 162
340 270 1029 824 1735 1322 2391 1688 181 101 487 253 641 318 73 31 147 62
163 69 88 39 350 132 490 174 586 177 937 231 1510 232 666 0 1313 -52 2805
-226 832 -97 1064 -124 1135 -130 39 -3 174 -16 300 -30 906 -96 1583 -142
2240 -152 1084 -16 1890 92 2500 334 541 214 907 519 1134 944 l51 96 0 2469
0 2470 -317 11 c-175 7 -321 9 -325 5 -3 -4 18 -646 48 -1427 35 -930 50
-1421 44 -1423 -6 -2 -8 -8 -4 -13 3 -5 -7 -4 -21 1 -15 6 -34 10 -43 10 -15
0 -15 -2 -2 -10 13 -8 12 -10 -4 -10 -10 0 -24 7 -30 16 -7 9 -18 13 -30 8
-11 -4 -14 -9 -6 -14 6 -4 -3 -7 -20 -7 -23 0 -29 4 -25 15 4 11 -1 13 -20 8
-45 -11 -80 -16 -67 -10 23 11 12 21 -25 22 -20 1 -42 -3 -50 -9 -10 -9 -13
-8 -13 2 0 8 -9 4 -20 -11 l-20 -25 9 26 c9 25 8 25 -37 27 -34 2 -43 0 -32
-7 8 -6 26 -8 40 -5 20 4 22 3 9 -5 -23 -15 -98 -30 -104 -21 -3 4 2 14 11 21
14 12 14 14 -3 20 -10 4 -33 8 -52 8 -32 1 -33 0 -16 -13 11 -8 23 -12 27 -10
5 3 8 0 8 -5 0 -6 -7 -11 -15 -11 -8 0 -15 5 -15 10 0 6 -7 10 -16 10 -8 0
-13 -4 -10 -9 3 -5 -3 -11 -14 -14 -16 -4 -18 -2 -10 13 14 27 13 30 -12 29
-22 0 -22 -1 -3 -9 19 -8 19 -9 -2 -9 -13 -1 -23 5 -23 12 0 10 -16 13 -59 12
-33 -1 -58 2 -56 5 2 4 -2 7 -10 7 -20 0 -19 -7 2 -22 10 -7 34 -11 57 -8 34
4 38 2 22 -7 -11 -7 -34 -10 -56 -6 -35 5 -38 4 -33 -14 4 -15 0 -20 -16 -20
-12 0 -20 4 -17 8 3 5 -1 9 -9 9 -8 0 -12 -4 -9 -9 3 -4 -87 -8 -200 -8 -126
0 -207 -4 -211 -10 -4 -7 253 -10 764 -10 423 0 772 -3 774 -7 3 -5 1 -17 -4
-28 -4 -11 -8 -14 -8 -7 -1 9 -161 12 -766 12 -605 0 -765 -3 -765 -12 0 -9
-4 -8 -10 2 -7 11 -10 12 -10 2 0 -8 -5 -12 -11 -10 -18 6 -10 23 11 23 11 0
19 5 18 10 -2 6 -9 10 -17 10 -8 0 -16 6 -19 13 -5 17 -27 15 -43 -5 -8 -9 -9
-14 -3 -10 7 4 18 -1 25 -10 12 -15 12 -16 -6 -8 -33 14 -85 18 -85 7 0 -6 8
-12 18 -14 9 -3 -2 -5 -25 -6 -24 0 -43 3 -43 8 0 4 10 6 23 3 18 -4 19 -3 7
6 -14 10 -13 12 10 15 6 0 10 5 10 11 0 5 -17 9 -37 9 -89 0 -123 -5 -123 -15
0 -6 9 -9 20 -6 11 3 20 1 20 -4 0 -4 8 -6 18 -3 13 5 14 4 3 -4 -7 -5 -25 -7
-40 -3 -14 4 -45 6 -68 3 -39 -4 -43 -2 -43 17 0 19 -5 21 -39 19 -21 -2 -37
-6 -35 -10 3 -4 18 -6 34 -4 16 2 27 -1 24 -6 -3 -4 -27 -6 -52 -4 -26 3 -60
5 -77 6 -26 1 -27 3 -10 10 13 6 -11 8 -70 7 -135 -3 -203 4 -210 21 -4 11 -9
11 -18 3 -10 -8 -19 -7 -33 3 -14 11 -22 12 -33 3 -10 -9 -16 -7 -26 7 -14 19
-52 18 -47 -2 1 -7 -9 -12 -23 -12 -14 0 -25 5 -25 11 0 5 4 8 9 5 5 -4 7 3 4
14 -4 16 -2 19 12 13 13 -4 16 -3 11 5 -5 8 1 12 16 12 18 0 20 -2 8 -10 -13
-8 -13 -10 2 -10 9 0 20 5 23 10 3 6 11 10 16 10 6 0 8 -4 5 -9 -7 -10 22 -24
34 -16 4 3 10 -2 13 -9 4 -10 15 -13 33 -10 17 3 33 -1 45 -12 18 -16 19 -16
19 5 l0 21 618 0 c562 -1 617 0 620 15 3 12 -2 16 -20 13 l-23 -3 -3 1818 -2
1817 364 0 363 0 6 -112 c4 -62 10 -197 13 -300 l7 -188 328 0 329 0 0 2935 0
2935 -345 0 -345 0 0 195 0 195 345 0 345 0 0 475 0 475 -10715 0 -10715 0 0
-294 c0 -162 -3 -297 -7 -299 -5 -3 -52 -8 -105 -12 l-97 -7 15 57 c9 32 13
63 11 69 -6 16 -246 81 -257 70 -4 -5 -173 -592 -374 -1304 -202 -712 -369
-1302 -372 -1310 -3 -8 -5 -17 -5 -20 0 -3 -7 -16 -16 -29 -8 -13 -11 -21 -6
-18 6 4 6 -9 0 -33 -6 -21 -14 -37 -18 -34 -5 3 -7 -6 -7 -18 2 -22 -7 -67
-19 -98 -9 -22 -10 -28 -12 -51 0 -11 -5 -18 -10 -14 -6 3 -8 -3 -6 -15 2 -11
0 -22 -5 -25 -5 -3 -7 -12 -4 -19 9 -23 -14 -29 -105 -29 l-86 -1 75 -3 c94
-4 106 -8 90 -28 -9 -11 -9 -15 -1 -15 8 0 7 -9 -3 -29 -9 -16 -13 -31 -10
-33 3 -3 -2 -8 -11 -12 -13 -4 -14 -2 -5 14 6 11 7 20 3 20 -5 0 -14 -13 -21
-30 -8 -16 -18 -30 -23 -30 -6 0 -7 5 -3 12 4 7 3 8 -5 4 -8 -6 -9 -12 -2 -20
6 -7 7 -16 3 -20 -7 -7 -8 -11 -11 -37 -1 -8 -25 -9 -81 -4 -56 5 -80 4 -80
-4 0 -6 1 -13 3 -14 1 -2 -4 -11 -11 -20 -8 -9 -9 -18 -3 -21 11 -7 9 -32 -4
-43 -4 -4 -5 -3 -2 3 4 7 1 14 -7 17 -7 3 -16 15 -19 26 -3 12 -1 19 4 15 17
-10 30 6 20 25 -7 13 -6 24 4 39 12 16 12 21 2 25 -9 4 -9 6 1 6 7 1 12 16 12
40 0 22 5 43 10 46 6 4 8 10 5 15 -3 5 -1 11 5 15 6 4 8 11 5 16 -4 5 -1 9 5
9 6 0 8 5 4 12 -4 7 -3 8 5 4 6 -4 9 -11 6 -16 -3 -5 4 -8 15 -7 19 1 18 3 -6
22 -25 20 -25 21 -9 58 9 23 20 35 27 31 7 -4 8 -3 4 5 -4 6 -11 9 -16 6 -4
-3 -6 4 -3 15 3 11 9 18 13 15 5 -3 6 5 2 17 -3 11 -1 19 4 16 5 -4 10 6 10
20 2 39 37 155 51 170 7 7 10 18 7 25 -4 12 237 847 254 877 5 8 19 53 31 100
13 47 111 384 218 749 107 365 193 665 191 666 -2 2 -118 -7 -258 -21 -140
-13 -256 -24 -257 -24 -2 0 -3 160 -3 355 l0 355 -135 0 -135 0 -2 -367 -3
-368 -125 -11 c-69 -7 -153 -15 -187 -18 l-62 -6 14 41 c21 58 19 67 -15 74
l-30 7 0 324 0 324 -1030 0 -1030 0 0 -77 c0 -203 -22 -878 -28 -884 -4 -4
-40 -9 -79 -13 l-73 -6 0 85 c0 47 -4 85 -8 85 -36 0 -800 -61 -809 -65 -10
-3 -13 15 -13 70 0 54 4 75 13 75 6 0 193 16 415 37 l402 38 0 327 0 328 -846
0 -845 0 5 -222 c15 -582 18 -710 19 -806 1 -56 2 -102 2 -103 0 0 -82 -8
-182 -18 l-183 -17 0 583 0 583 -355 0 c-277 0 -355 -3 -355 -12 0 -7 -5 -282
-10 -612 -5 -329 -12 -601 -15 -604 -5 -6 -335 -41 -387 -42 l-28 0 0 475 c0
261 -3 475 -7 475 -5 0 -109 -9 -233 -20 -124 -11 -232 -20 -240 -20 -13 0
-15 -48 -18 -358 -1 -196 -2 -412 -2 -478 l0 -121 -67 -7 c-38 -4 -81 -8 -98
-10 -16 -2 -66 -7 -110 -11 -44 -4 -83 -9 -87 -11 -10 -6 -10 -56 7 671 8 336
15 627 15 648 l0 37 -595 0 -595 0 0 -48 c0 -27 -29 -1054 -65 -2283 -36
-1229 -68 -2313 -71 -2409 -21 -730 -84 -2942 -84 -2957 0 -18 -54 -18 -1772
-16 -975 1 -1932 5 -2125 8 l-353 7 0 62 c0 33 -7 858 -15 1831 l-16 1770 -26
95 c-102 369 -328 870 -539 1190 -160 245 -298 413 -500 610 -392 382 -843
632 -1383 764 -234 58 -520 96 -718 96 l-93 0 0 640 0 640 -1974 0 -1973 0 -7
-187z m39823 -915 c1 -321 6 -943 11 -1383 5 -440 10 -917 10 -1061 l0 -261
-216 -7 c-119 -4 -219 -5 -221 -2 -2 2 3 679 11 1504 9 824 16 1565 16 1646
l0 146 193 0 194 0 2 -582z m-20852 500 c-2 -7 -177 -551 -388 -1208 -211
-657 -387 -1197 -391 -1198 -5 -2 -6 -7 -3 -12 6 -9 -30 -117 -45 -135 -5 -6
-7 -15 -3 -18 3 -4 0 -13 -7 -22 -7 -8 -9 -15 -6 -15 4 0 4 -6 -1 -12 -4 -7
-8 -17 -8 -23 -1 -5 -7 -9 -15 -7 -10 2 -11 0 -2 -10 12 -16 5 -61 -9 -52 -5
3 -6 -1 -3 -9 8 -21 -14 -69 -28 -61 -7 4 -8 3 -4 -5 4 -6 2 -19 -6 -28 -11
-14 -11 -16 1 -8 10 5 12 4 7 -3 -4 -7 -14 -12 -21 -12 -9 0 -12 -6 -8 -16 5
-13 7 -13 14 -2 5 7 9 8 9 2 0 -6 -9 -19 -20 -29 -19 -17 -19 -17 -15 3 6 33
-16 51 -67 53 -26 2 -50 1 -53 -2 -2 -3 19 -7 47 -8 58 -2 67 -9 63 -52 -1
-16 1 -27 5 -24 4 3 11 -2 14 -11 4 -12 2 -15 -9 -10 -13 4 -14 2 -5 -14 8
-14 8 -20 0 -20 -6 0 -9 -4 -5 -9 3 -5 1 -12 -5 -16 -6 -4 -8 -11 -5 -16 4 -5
-1 -16 -9 -25 -9 -9 -16 -11 -16 -4 0 6 -5 8 -12 4 -7 -5 -9 -2 -6 8 5 11 0
15 -15 13 -12 -1 -38 -3 -58 -4 -28 -1 -38 -6 -42 -21 -3 -11 -11 -20 -19 -20
-9 0 -9 3 -2 8 17 11 26 49 14 57 -5 3 -10 11 -10 16 0 6 3 8 8 5 4 -2 8 14 8
37 1 23 -1 34 -3 24 -3 -9 -9 -15 -14 -11 -5 3 -6 10 -3 16 4 7 2 8 -4 4 -7
-4 -12 -2 -12 3 0 10 13 15 31 13 3 -1 6 5 6 13 0 7 -6 11 -14 8 -28 -11 -11
8 25 26 40 21 39 27 -1 12 l-25 -10 25 77 c15 42 30 78 34 80 4 2 5 10 2 18
-5 13 8 19 30 15 5 -1 6 3 2 9 -3 6 -11 7 -17 4 -8 -5 -9 -1 -5 10 4 10 10 28
13 41 3 12 15 28 27 34 12 6 14 9 5 7 -10 -3 -15 0 -13 7 2 7 193 582 425
1280 l422 1267 100 0 c76 0 99 -3 95 -12z m6846 -565 c-2 -87 -5 -195 -9 -240
l-6 -82 -31 -5 c-29 -5 -408 -40 -552 -52 -33 -3 -130 -11 -215 -19 -85 -8
-169 -15 -187 -15 l-31 0 4 163 c2 89 4 194 4 233 l0 71 178 17 c97 10 202 19
232 22 30 2 69 6 85 9 17 3 62 7 100 11 68 5 415 41 425 43 3 1 4 -70 3 -156z
m15211 -745 c278 -752 360 -973 421 -1128 47 -121 176 -483 172 -485 -11 -7
-521 -204 -523 -202 -3 4 -193 593 -500 1550 -172 538 -293 932 -288 937 9 8
383 189 394 190 3 0 149 -388 324 -862z m-5681 -385 c4 -104 7 -263 7 -355 l0
-168 -450 0 -450 0 0 325 0 325 23 1 c12 0 184 13 382 28 198 16 387 29 421
30 l61 1 6 -187z m-13161 -515 c2 -299 3 -759 3 -1023 l0 -480 -134 -3 -133
-3 6 448 c3 246 9 708 12 1026 l6 577 119 0 118 0 3 -542z m-5214 -155 c1
-313 4 -772 8 -1020 l7 -453 -45 0 c-25 0 -87 -3 -138 -7 l-93 -6 7 919 c3
505 9 967 12 1027 l6 107 118 0 117 0 1 -567z m20552 -185 c0 -117 -3 -257 -7
-310 l-6 -98 -284 0 -283 0 0 310 0 310 290 0 290 0 0 -212z m-12760 -362 c0
-214 0 -214 -22 -219 -40 -9 -537 -61 -541 -56 -2 2 -7 113 -11 247 l-6 242
290 0 290 0 0 -214z m-10576 112 c3 -13 6 -114 6 -225 l0 -203 -280 0 -280 0
0 205 c0 113 1 205 3 206 8 3 442 37 488 38 51 1 57 -1 63 -21z m6566 -568 l0
-190 -180 0 -180 0 0 190 0 190 180 0 180 0 0 -190z m-7702 8 c77 -35 77 -27
-8 -205 l-59 -122 -93 43 c-51 24 -117 55 -145 70 l-53 26 72 144 72 144 75
-35 c42 -20 105 -49 139 -65z m2492 10 c0 -29 -3 -117 -7 -195 l-6 -143 -174
0 -173 0 0 195 0 195 180 0 180 0 0 -52z m8650 -1780 c-1 -130 50 -2140 56
-2227 l6 -84 167 7 c91 3 220 9 286 11 455 19 638 26 640 23 1 -2 8 -154 14
-338 6 -184 14 -354 17 -377 l5 -43 -555 0 -556 0 0 -180 0 -180 -240 0 -240
0 0 93 c0 344 23 3333 26 3336 2 2 79 10 171 16 93 7 176 13 186 14 15 1 17
-9 17 -71z m-2646 -55 c3 -42 6 -117 6 -168 0 -51 3 -113 6 -139 l7 -46 63 0
64 0 0 -86 0 -86 -64 7 -64 7 5 -83 c4 -78 73 -1913 73 -1945 0 -8 10 -14 24
-14 13 0 26 -5 28 -12 3 -8 231 -29 764 -69 417 -32 765 -58 772 -58 9 -1 12
-36 12 -141 l0 -140 -42 6 c-24 2 -1031 97 -2238 210 -1206 112 -2195 206
-2197 208 -2 1 0 16 3 32 l6 30 397 45 397 46 199 -18 c110 -10 252 -21 315
-24 63 -3 290 -19 504 -35 214 -17 400 -30 413 -30 l23 0 0 1290 0 1290 259 0
258 0 7 -77z m-4568 -613 l-7 -421 -146 -457 c-81 -251 -150 -459 -155 -460
-4 -2 -6 -7 -3 -12 5 -8 -24 -101 -34 -110 -3 -3 -7 -14 -9 -25 -9 -56 -15
-75 -24 -75 -5 0 -6 -4 -3 -10 3 -5 1 -19 -5 -30 -6 -12 -13 -29 -15 -38 -8
-40 -26 -72 -40 -72 -8 0 -15 7 -15 15 0 8 -4 15 -10 15 -5 0 -6 -7 -3 -17 5
-12 3 -14 -8 -8 -12 7 -12 6 -1 -7 10 -12 9 -18 -3 -28 -17 -14 -21 -45 -5
-35 6 4 7 11 4 17 -5 7 -2 8 5 4 9 -6 9 -12 -3 -25 -9 -10 -15 -26 -15 -37 1
-17 2 -17 6 -1 2 9 9 17 14 17 5 0 9 7 9 15 0 8 6 15 13 15 8 0 7 4 -3 10 -13
9 -13 10 0 10 13 0 13 1 0 10 -8 5 -13 10 -10 11 3 0 13 2 22 4 15 3 16 0 8
-16 -6 -10 -9 -19 -6 -19 3 0 0 -13 -5 -30 -7 -18 -15 -27 -22 -23 -9 5 -9 3
-1 -8 8 -10 7 -23 -4 -49 -8 -19 -17 -29 -19 -22 -6 15 -238 17 -248 2 -3 -5
-12 -10 -19 -10 -10 0 -11 7 -2 34 6 19 14 32 18 30 4 -3 5 2 2 10 -3 8 0 25
7 38 7 13 14 25 15 28 0 3 4 13 9 23 4 10 4 22 -1 26 -5 4 -1012 101 -2239
215 -1226 115 -2254 211 -2282 214 -167 16 38 22 792 22 l845 0 0 -59 0 -59
63 -7 c34 -3 451 -35 927 -71 1764 -132 1925 -145 1934 -154 6 -6 6 -14 0 -22
-14 -18 -12 -70 2 -75 8 -3 9 6 5 29 -4 19 -3 41 3 51 8 13 8 20 -1 25 -7 5
-9 13 -4 21 6 8 14 10 22 5 11 -6 12 -5 2 7 -11 14 -7 69 6 69 3 0 7 12 8 26
0 15 11 40 23 56 12 16 19 32 16 35 -3 4 -6 0 -6 -7 0 -7 -2 -11 -5 -8 -5 5
57 197 71 220 5 7 9 19 9 28 2 20 519 1570 524 1570 2 0 1 -189 -3 -420z
m3614 210 l0 -110 -145 0 -145 0 0 110 0 110 145 0 145 0 0 -110z m-6200 -125
l0 -125 -52 6 c-29 3 -107 12 -173 19 -66 8 -145 17 -175 21 -30 3 -80 9 -110
13 l-55 6 -3 79 c-2 44 -1 85 2 93 4 10 61 13 286 13 l280 0 0 -125z m880
-100 l0 -65 -302 2 -303 3 -3 49 c-2 27 -1 55 2 62 4 12 60 14 306 14 l300 0
0 -65z m7100 -310 l0 -65 -340 0 -340 0 0 65 0 65 340 0 340 0 0 -65z m3530
-177 c13 -59 22 -109 19 -111 -11 -9 -463 -136 -467 -132 -6 6 -53 287 -49
291 1 2 103 21 227 44 124 23 227 43 229 46 7 7 15 -19 41 -138z m14600 -378
l0 -160 -205 0 -205 0 0 160 0 160 205 0 205 0 0 -160z m-4500 -195 l0 -186
-32 6 c-47 7 -792 95 -812 95 -14 0 -16 17 -16 135 l0 135 430 0 430 0 0 -185z
m-20154 -52 l141 -6 7 -90 c3 -50 6 -121 6 -159 l0 -68 -72 1 c-40 0 -199 8
-353 17 l-280 17 -3 154 -3 154 208 -7 c115 -3 271 -9 349 -13z m21524 -93 l0
-90 -465 0 -465 0 0 90 0 90 465 0 465 0 0 -90z m-19690 -83 c565 -41 585 -43
582 -62 -2 -11 -5 -21 -5 -21 -2 -1 -1390 92 -1462 98 -49 4 138 25 235 26 36
0 328 -18 650 -41z m-6210 -660 c0 -8 -3 -17 -6 -20 -4 -4 -6 -46 -5 -94 2
-97 -42 -1569 -49 -1646 0 -9 -5 -15 -11 -12 -5 4 -9 2 -9 -4 0 -5 5 -13 11
-17 12 -7 7 -164 -7 -198 -7 -17 -8 -17 -20 5 -10 19 -13 20 -14 7 0 -16 -35
-18 -524 -20 -288 -2 -522 0 -519 5 6 10 -5 9 -26 -3 -15 -8 -19 -29 -25 -142
-3 -73 -9 -155 -13 -181 l-6 -48 577 7 576 7 0 -66 0 -67 -1892 0 c-1040 0
-1889 3 -1885 6 3 3 35 23 70 44 l65 38 396 7 396 7 1 67 c1 36 3 87 5 114 l4
47 -400 0 c-392 0 -400 0 -400 -20 0 -19 8 -20 358 -23 l357 -2 -360 0 -360 0
0 152 c0 83 -3 149 -6 147 -4 -2 -7 29 -7 69 0 39 -6 465 -13 945 -7 479 -10
874 -8 876 2 2 684 8 1514 13 2380 15 2235 15 2235 0z m26505 -972 c220 -8
423 -15 451 -15 l51 0 8 -246 c4 -135 4 -248 1 -251 -6 -6 -917 41 -1023 53
l-53 5 0 235 0 234 83 0 c45 0 262 -7 482 -15z m-20810 -91 c319 -41 581 -77
583 -79 2 -1 -2 -22 -9 -45 -12 -39 -15 -42 -43 -37 -17 2 -343 51 -724 108
-382 57 -690 105 -685 106 22 8 251 29 273 26 14 -2 286 -37 605 -79z m22931
-158 c1 0 4 -92 7 -204 l6 -202 -102 5 c-56 3 -133 7 -172 10 -38 3 -128 7
-200 10 -71 3 -154 8 -182 11 l-53 6 0 190 0 190 348 -7 c191 -4 348 -8 348
-9z m-3368 -324 c449 -34 753 -61 753 -67 0 -6 3 -12 6 -15 4 -3 3 1 -2 9 -6
11 6 12 71 7 44 -4 99 -7 123 -7 24 0 47 -2 52 -4 4 -3 65 -8 136 -10 141 -6
167 -11 157 -28 -5 -8 -2 -8 7 1 14 13 103 17 96 5 -3 -5 14 -7 36 -5 23 2 94
-2 157 -7 63 -6 139 -12 167 -12 29 -1 51 -4 49 -8 -2 -3 14 -5 37 -2 39 3 41
3 27 -15 -14 -18 -14 -18 6 -1 21 18 39 23 30 9 -3 -5 1 -9 9 -9 8 0 12 5 8
10 -3 5 3 7 13 3 11 -3 45 -6 76 -7 32 -1 56 -5 54 -8 -2 -3 57 -7 133 -9 75
-1 137 -6 139 -10 1 -4 18 -6 38 -4 19 2 33 0 32 -4 -2 -5 2 -9 7 -9 6 0 9 3
8 7 -2 4 8 7 22 6 14 -1 25 -5 25 -8 0 -4 10 -6 23 -6 15 1 22 -4 21 -16 -1
-10 3 -15 8 -12 5 3 7 12 4 20 -4 11 3 14 32 13 58 -3 83 -10 75 -23 -4 -7 -2
-7 8 1 16 13 113 12 125 0 4 -4 1 -13 -5 -21 -10 -12 -9 -14 6 -12 10 2 17 10
15 19 -2 12 7 15 43 15 25 0 47 -3 49 -7 3 -4 28 -6 56 -4 27 2 58 -1 68 -7
14 -9 13 -10 -8 -4 -14 3 -22 3 -18 -1 10 -10 59 -15 53 -5 -8 13 88 10 104
-3 12 -10 13 -9 6 2 -5 10 -4 12 3 7 7 -4 56 -9 109 -12 54 -3 109 -6 123 -8
14 -2 44 -4 68 -4 26 -1 41 -6 37 -12 -3 -5 -1 -10 6 -10 13 0 3 -14 -12 -16
-5 -1 -13 -2 -19 -3 -5 0 -10 -8 -10 -16 0 -8 -8 -15 -17 -14 -11 0 -13 3 -5
6 6 2 12 13 12 24 0 11 7 19 17 19 9 0 14 3 10 6 -9 9 -48 -6 -42 -17 4 -5 1
-9 -4 -9 -6 0 -11 -7 -11 -15 0 -8 -5 -15 -11 -15 -5 0 -8 4 -4 9 3 5 1 12 -5
16 -5 3 -10 -2 -10 -11 0 -17 -1 -17 -12 -1 -12 16 -53 17 -533 15 -372 -2
-519 -6 -518 -14 1 -7 -8 -9 -22 -6 -14 2 -22 8 -19 13 3 5 -1 9 -8 9 -10 0
-11 2 0 8 17 11 5 41 -15 38 -9 -2 -18 -11 -19 -21 -2 -13 0 -15 9 -6 20 20
30 11 11 -11 -10 -12 -13 -18 -5 -13 9 5 12 4 7 -3 -7 -12 -66 -12 -66 0 0 4
-16 5 -35 4 -19 -2 -35 0 -35 6 0 5 -6 6 -12 1 -16 -10 -130 -4 -144 8 -6 5
-21 6 -35 4 -35 -8 -105 5 -88 16 10 6 8 8 -8 6 -12 0 -20 -4 -17 -8 2 -4 -9
-7 -26 -7 -17 1 -33 5 -36 9 -3 5 -19 6 -36 2 -22 -4 -29 -3 -24 5 4 7 3 12
-3 12 -5 0 -11 -5 -13 -12 -3 -7 -11 -9 -24 -4 -10 5 -44 10 -74 11 -107 4
-350 28 -350 34 0 3 -21 5 -47 4 -27 -1 -60 4 -75 12 -16 7 -28 10 -28 5 0 -7
-28 -7 -125 3 -57 6 -57 6 -50 18 4 6 -2 5 -14 -3 -17 -10 -25 -10 -41 0 -12
7 -20 8 -20 2 0 -5 -7 -10 -15 -10 -8 0 -15 3 -15 8 0 4 -44 8 -97 9 -53 1
-104 5 -113 9 -8 3 -57 8 -109 10 -71 3 -99 8 -114 22 -11 9 -17 12 -13 5 9
-16 -186 -6 -196 10 -3 6 -14 12 -22 13 -9 1 -14 -2 -10 -7 10 -17 -68 -9 -83
9 -8 9 -12 11 -8 5 5 -10 -10 -12 -62 -9 -106 7 -205 16 -243 22 -29 5 -80 10
-160 15 -49 4 -335 31 -336 32 -1 1 -4 23 -6 50 -5 39 -3 47 11 47 9 -1 355
-27 769 -58z m-10100 -1193 c-3 -33 -5 -34 -48 -37 -25 -2 -459 -25 -964 -51
l-919 -48 -209 36 c-114 20 -208 39 -208 43 0 5 33 8 73 9 39 0 565 22 1167
48 602 26 1099 44 1103 40 5 -3 7 -22 5 -40z m-17864 16 c699 -13 1429 -29
1621 -34 193 -6 498 -13 678 -17 l328 -6 -3 -56 -3 -56 -95 2 c-52 1 -957 16
-2010 32 -1053 17 -1934 34 -1957 36 l-43 5 0 60 0 59 106 0 c59 0 679 -11
1378 -25z m7851 -101 c330 -65 601 -118 602 -119 1 0 -3 -20 -9 -43 -8 -33
-15 -42 -32 -42 -11 1 -345 72 -741 160 l-720 158 135 4 c74 2 142 3 150 2 8
-1 285 -55 615 -120z m10015 -241 c1 -93 2 -265 4 -383 2 -118 7 -487 11 -820
4 -333 15 -1172 24 -1865 9 -693 17 -1261 16 -1262 0 0 -205 81 -455 181
l-455 182 -3 104 c-1 58 -18 524 -37 1035 -19 512 -35 958 -35 993 0 34 -4 62
-8 62 -7 0 -267 -1089 -276 -1160 -3 -19 -7 -46 -10 -60 -14 -63 -18 -80 -17
-85 0 -2 -5 -19 -10 -37 -9 -28 -20 -76 -44 -179 -2 -9 -8 -25 -14 -35 -6 -11
-34 -120 -62 -244 -28 -124 -54 -230 -58 -237 -6 -12 -493 565 -499 591 -3 13
37 191 182 806 40 168 191 815 337 1437 l264 1132 255 3 c140 2 398 4 573 6
l317 2 0 -167z m-2370 -504 c223 -28 406 -52 406 -53 1 0 4 -173 8 -383 6
-361 5 -381 -11 -377 -29 7 -844 174 -849 174 -2 0 -4 158 -4 350 l0 350 23
-4 c12 -3 204 -29 427 -57z m-8213 -900 c738 -199 665 -176 657 -202 -7 -23
-44 -58 -55 -51 -4 2 -6 -7 -6 -20 l0 -24 24 26 c18 20 23 22 19 9 -3 -10 -6
-24 -6 -30 0 -8 -4 -7 -9 2 -7 11 -10 9 -16 -9 -4 -12 -10 -18 -14 -12 -4 6
-90 11 -228 13 -121 2 -219 1 -217 -2 2 -4 -4 -13 -13 -20 -12 -10 -14 -10 -9
-1 13 21 -5 35 -20 15 -11 -13 -14 -14 -12 -3 2 11 -10 17 -42 21 -25 3 -39 7
-32 7 27 4 10 18 -25 20 -33 3 -35 2 -22 -15 13 -16 12 -17 -3 -5 -9 8 -22 11
-27 7 -7 -3 -8 0 -5 9 3 9 9 15 12 14 20 -2 32 3 27 11 -3 6 -14 8 -23 6 -61
-11 -172 -3 -172 14 0 4 -8 7 -17 7 -18 1 -404 123 -412 130 -4 4 38 154 59
208 5 14 14 26 19 26 6 0 261 -68 568 -151z m-542 -169 c55 -18 102 -37 103
-42 2 -4 7 -6 12 -3 4 3 24 -2 45 -11 27 -11 35 -19 30 -31 -5 -15 -3 -15 14
1 12 11 21 14 26 7 3 -6 1 -11 -4 -11 -8 0 -7 -7 1 -20 9 -14 15 -16 21 -7 7
9 10 9 14 -1 2 -6 9 -10 14 -6 5 3 9 1 9 -5 0 -5 -4 -13 -10 -16 -5 -3 -10 -1
-10 4 0 6 -10 10 -22 8 -14 -1 -22 3 -20 11 1 6 -3 12 -9 12 -12 0 -2 -40 14
-55 7 -7 7 -6 2 4 -6 10 -2 10 16 -2 13 -8 69 -24 124 -37 55 -12 123 -28 150
-35 32 -8 54 -9 62 -3 7 6 14 4 20 -5 5 -9 105 -37 253 -71 135 -32 246 -59
247 -60 6 -5 -26 -91 -33 -90 -5 1 -343 86 -751 190 l-742 189 131 5 131 5 14
45 c8 25 17 51 19 59 2 7 10 11 17 9 6 -3 57 -20 112 -38z m355 -710 c311 -94
572 -173 581 -176 15 -4 14 -12 -7 -76 -14 -40 -26 -79 -28 -88 -1 -8 -13 -48
-25 -89 -13 -41 -24 -81 -27 -90 -2 -9 -16 -58 -31 -109 l-28 -93 -115 3 -115
3 -500 198 c-275 109 -503 202 -507 206 -6 5 115 416 146 497 4 11 12 11 48
-1 24 -8 297 -91 608 -185z m2395 -401 c538 -198 986 -364 994 -369 10 -6 -4
-7 -39 -5 -30 3 -521 12 -1090 21 -569 9 -1037 18 -1038 20 -3 2 169 641 183
682 2 6 6 12 8 12 2 0 444 -162 982 -361z m-2774 -125 c244 -96 446 -178 449
-181 5 -5 -992 6 -998 12 -3 2 101 345 104 345 1 0 201 -79 445 -176z m8634
-1235 c748 -238 852 -273 870 -297 11 -14 33 -40 48 -56 16 -16 294 -396 619
-845 325 -449 600 -828 611 -843 l20 -26 -229 -571 c-125 -314 -231 -568 -235
-564 -8 9 -1221 1682 -1231 1698 -4 6 45 134 107 285 62 151 110 278 107 281
-4 4 -439 174 -967 379 -528 204 -963 375 -967 379 -9 8 369 451 385 451 7 0
395 -122 862 -271z m-4472 -1952 c4 3 7 1 7 -6 0 -7 4 -10 9 -6 5 3 12 1 16
-5 4 -7 -577 -10 -1794 -10 -989 0 -1808 -3 -1818 -6 -16 -5 -16 -4 -2 5 12 7
558 12 1785 13 1522 3 1769 5 1766 17 -2 11 0 12 11 3 8 -7 17 -9 20 -5z"/>
<path d="M25728 31384 c-2 -25 0 -48 3 -50 4 -2 109 7 234 21 125 14 233 25
241 25 8 0 14 10 14 25 l0 25 -244 0 -244 0 -4 -46z"/>
<path d="M32890 31235 c0 -107 4 -195 9 -195 5 0 53 9 106 20 53 11 99 20 101
20 2 0 4 79 4 175 l0 175 -110 0 -110 0 0 -195z"/>
<path d="M20377 30323 l-47 -68 0 -2736 0 -2736 45 -42 45 -41 1580 0 1580 0
-2 2782 -3 2783 -1435 56 c-789 31 -1498 59 -1576 63 l-140 6 -47 -67z m774
-277 c217 -14 450 -27 519 -31 69 -3 226 -12 350 -20 320 -22 307 -21 728 -46
l382 -23 0 -2471 0 -2470 178 -84 c97 -46 181 -88 186 -93 6 -4 -650 -8 -1457
-8 -807 0 -1467 3 -1467 6 0 3 27 52 60 108 l60 103 0 2526 0 2527 34 0 c18 0
211 -11 427 -24z"/>
<path d="M9630 28564 c-107 -74 -558 -383 -1001 -685 l-806 -550 -767 -1458
c-421 -802 -766 -1462 -766 -1468 0 -5 40 -29 90 -53 l90 -44 52 19 c29 10 62
24 73 31 11 7 263 91 559 188 l539 176 291 -161 c160 -88 292 -162 295 -165 2
-2 2 -6 -1 -9 -3 -3 -289 -57 -636 -120 l-631 -114 -53 29 c-29 16 -60 30 -69
30 -8 0 -25 -20 -37 -45 l-22 -45 54 -27 54 -26 848 134 847 135 724 1309
c398 721 787 1427 865 1570 78 143 158 287 178 320 59 97 340 610 340 621 0 8
-900 545 -911 543 -2 0 -92 -61 -199 -135z"/>
<path d="M11206 20568 c4 -7 16 -23 27 -35 11 -13 19 -24 16 -26 -2 -2 -240 1
-529 7 -515 9 -1650 -1 -2580 -24 -874 -21 -926 -22 -909 -8 8 7 31 26 50 41
l34 28 -140 -6 c-77 -3 -322 -12 -545 -21 -443 -16 -478 -21 -591 -80 -116
-61 -205 -162 -257 -291 l-27 -68 2 -840 c1 -462 7 -1281 12 -1820 6 -539 13
-1293 16 -1675 3 -382 9 -857 15 -1055 5 -198 12 -540 15 -760 3 -220 12 -710
20 -1090 7 -379 13 -697 13 -705 0 -8 2 -107 6 -220 7 -260 10 -480 5 -485 -3
-2 -80 153 -173 346 -93 192 -171 348 -172 346 -2 -1 86 -509 195 -1127 l199
-1125 6 -235 c9 -324 44 -1346 60 -1740 13 -308 15 -329 40 -405 34 -100 70
-157 144 -227 95 -91 198 -133 377 -156 59 -7 58 -7 -45 -12 -65 -3 82 -10
390 -18 1440 -37 2837 -83 3385 -112 320 -17 325 -19 325 -93 0 -77 -66 -277
-151 -455 -21 -46 -39 -86 -39 -88 0 -2 -29 -63 -64 -134 l-64 -130 37 31 c20
18 81 74 136 124 55 51 114 105 130 120 44 40 223 205 259 240 18 17 74 68
126 115 104 94 208 189 254 234 17 17 90 85 163 152 152 142 106 126 437 144
221 11 300 30 399 94 68 43 151 135 188 207 49 97 58 154 65 393 l7 221 175
179 c363 374 624 703 696 878 l16 37 -85 -64 c-227 -171 -601 -348 -851 -403
l-124 -27 0 -221 c0 -121 -3 -269 -7 -327 l-6 -107 -641 0 -641 -1 80 -44 c44
-24 87 -48 95 -54 10 -7 -540 -10 -1669 -10 l-1685 -1 74 55 74 55 -887 0
-887 0 0 5795 0 5795 213 0 c116 0 1501 9 3076 20 1575 12 2866 19 2869 16 2
-3 -3 -1350 -12 -2993 -10 -1643 -16 -3257 -14 -3586 l3 -597 50 33 c235 154
542 302 790 378 112 35 93 36 -48 4 -137 -31 -301 -82 -444 -139 l-113 -44 0
342 0 342 141 194 c180 248 212 287 278 341 30 24 168 157 306 294 220 218
262 265 332 370 119 179 120 182 11 50 -87 -106 -246 -258 -294 -283 -57 -28
-95 -33 -184 -21 -166 20 -345 87 -408 152 -27 28 -35 46 -42 98 -11 73 -11
684 -1 1044 4 132 6 242 4 244 -1 2 -27 -23 -57 -55 l-55 -59 -1 386 0 387 48
23 c78 39 82 56 82 314 0 254 -5 275 -78 310 l-41 20 -1 105 0 105 37 20 c20
11 46 33 57 48 21 28 21 37 24 755 1 400 0 737 -3 749 -7 30 -54 83 -83 94
l-24 9 3 473 c4 436 3 477 -14 532 -60 196 -212 343 -402 390 -43 10 -170 17
-445 25 -511 13 -563 13 -554 -2z m-2176 -558 l627 0 28 22 28 21 -12 -22 c-7
-12 -23 -26 -37 -31 -15 -6 -273 -10 -634 -10 -361 0 -619 4 -634 10 -14 5
-30 19 -37 31 l-12 22 28 -21 28 -22 627 0z"/>
<path d="M10959 18548 c-1 -62 -5 -205 -8 -318 -6 -196 -7 -205 -26 -205 -11
0 -18 -5 -15 -10 3 -6 11 -9 18 -9 6 1 12 -4 12 -12 0 -20 -30 -17 -46 4 -13
16 -14 16 -8 0 6 -16 -2 -18 -73 -18 l-80 0 -6 -1007 c-4 -553 -7 -1361 -7
-1795 l0 -788 -1510 0 -1510 0 0 143 c0 78 -11 864 -25 1747 -14 883 -26 1628
-26 1655 l-1 50 -106 0 -107 0 -1 25 c-1 14 -5 136 -9 273 -5 136 -10 245 -12
243 -6 -6 56 -4321 63 -4401 l6 -60 139 -107 139 -108 1428 0 c1367 0 1428 1
1455 18 27 19 26 19 -169 25 -109 4 -438 7 -733 7 -295 1 -847 5 -1228 9
l-692 9 -62 43 -62 44 224 7 c123 3 843 8 1600 11 l1377 4 36 22 36 23 0 2294
c0 1262 -2 2294 -5 2294 -3 0 -6 -51 -6 -112z"/>
<path d="M7760 16235 l0 -1765 62 0 c35 0 493 11 1018 25 525 13 1135 27 1355
31 220 3 403 8 408 11 4 2 7 780 7 1727 l0 1724 -25 4 c-14 3 -25 1 -25 -3 0
-5 -513 -9 -1150 -9 l-1150 0 0 -230 c0 -126 -2 -230 -4 -230 -2 0 -58 32
-124 70 -66 39 -125 70 -130 70 -5 0 -48 -32 -96 -71 l-86 -70 0 230 0 231
-22 0 c-19 0 -20 2 -8 10 12 8 11 10 -7 10 l-23 0 0 -1765z m1732 -1537 c2
-46 2 -85 1 -87 -1 -2 -153 -6 -338 -9 l-335 -5 0 86 0 87 303 3 c166 1 316 3
334 5 l31 2 4 -82z"/>
<path d="M24791 17366 c2 -2 84 -41 182 -86 146 -66 186 -81 219 -78 39 3 31
7 -140 86 -135 61 -193 82 -224 82 -23 0 -39 -2 -37 -4z"/>
<path d="M22340 17317 c8 -8 56 -47 105 -88 l90 -75 113 2 c62 0 114 3 116 5
3 2 -60 41 -138 87 l-143 82 -79 0 c-66 0 -76 -2 -64 -13z"/>
<path d="M21074 16025 l-1331 -153 -1764 -1182 c-970 -650 -1763 -1187 -1763
-1195 1 -7 95 -148 210 -314 195 -281 211 -301 239 -301 16 0 443 -31 949 -69
l919 -69 2056 1376 c1131 756 2060 1378 2064 1382 4 3 -22 32 -59 63 l-67 56
-46 -32 c-25 -17 -50 -36 -56 -43 -5 -6 -881 -607 -1945 -1335 -1659 -1134
-1941 -1324 -1975 -1327 -45 -4 -1756 76 -1762 82 -4 4 -243 468 -243 472 0 1
476 5 1057 9 l1058 8 1838 1243 c1011 684 1841 1244 1845 1244 12 0 221 144
222 153 0 4 -12 25 -26 47 -22 33 -32 40 -58 39 -17 -1 -630 -70 -1362 -154z"/>
<path d="M43160 16173 c0 -5 10 -38 21 -74 20 -58 66 -117 92 -119 8 0 1393
-1115 1435 -1154 22 -21 22 -27 20 -173 l-3 -150 -685 599 -685 599 -24 85
-24 84 -74 0 -74 0 3 -29 c2 -25 136 -150 828 -780 l825 -751 3598 0 3597 0 0
170 0 170 -27 0 c-16 1 -611 14 -1323 30 -2769 63 -3928 89 -4245 94 -1126 18
-1590 30 -1600 42 -7 9 -1573 1302 -1642 1357 -8 5 -13 6 -13 0z"/>
<path d="M12310 10761 l0 -419 68 18 c37 10 86 24 110 30 l42 11 0 129 0 129
63 37 c119 72 462 286 471 295 5 4 -24 -4 -65 -19 -63 -23 -89 -26 -179 -26
-89 1 -116 5 -180 29 -78 29 -247 133 -289 179 -14 14 -28 26 -33 26 -4 0 -8
-189 -8 -419z"/>
<path d="M36480 7726 c-140 -25 -214 -50 -309 -102 -368 -202 -522 -630 -376
-1044 63 -177 217 -350 392 -438 272 -138 609 -142 878 -12 221 108 384 306
446 545 27 102 29 308 5 400 -9 33 -18 67 -20 75 -11 43 -57 142 -91 195 -112
175 -311 313 -526 365 -109 26 -299 34 -399 16z m324 -342 c210 -73 338 -260
337 -494 0 -100 -23 -197 -64 -274 -156 -294 -591 -341 -818 -88 -78 87 -116
185 -125 327 -15 219 89 411 270 499 39 20 91 40 116 45 63 14 225 6 284 -15z"/>
<path d="M25524 7697 c-2 -7 -3 -78 -2 -157 l3 -145 262 0 263 0 0 -668 0
-667 193 2 192 3 3 663 2 662 243 1 c133 1 249 2 257 3 13 1 15 25 15 156 l0
155 -713 2 c-574 2 -714 0 -718 -10z"/>
<path d="M27160 6885 l0 -825 190 0 190 0 0 335 0 335 370 2 370 3 0 -337 0
-338 190 0 190 0 0 825 0 825 -190 0 -190 0 0 -325 0 -325 -370 0 -370 0 0
325 0 325 -190 0 -190 0 0 -825z"/>
<path d="M29044 7697 c-2 -7 -3 -376 -2 -822 l3 -810 635 0 635 0 0 155 0 155
-30 2 c-16 0 -216 2 -442 2 l-413 1 0 180 0 180 365 1 c201 1 371 2 378 3 9 1
12 38 12 151 l0 150 -377 3 -378 2 0 175 0 175 429 0 429 0 1 149 c2 147 1
149 -21 155 -13 3 -292 6 -621 6 -461 -1 -599 -3 -603 -13z"/>
<path d="M31130 7702 c0 -3 29 -94 64 -201 36 -108 157 -475 269 -816 l204
-620 204 0 204 0 76 225 c43 124 126 370 185 548 l108 322 27 -77 c15 -43 58
-172 94 -288 37 -115 100 -310 141 -433 40 -122 78 -241 84 -262 l11 -40 206
2 207 3 188 575 c104 316 225 683 268 815 44 133 80 244 80 248 0 4 -83 7
-184 7 l-184 -1 -62 -185 c-34 -101 -63 -192 -65 -202 -2 -9 -60 -184 -128
-388 l-123 -371 -42 126 c-23 69 -64 196 -93 281 -28 85 -52 162 -54 171 -4
18 -67 215 -140 434 l-43 130 -178 0 -179 0 -152 -455 c-84 -250 -170 -506
-191 -569 l-38 -114 -38 119 c-20 65 -64 200 -96 299 -73 226 -216 673 -225
703 -6 22 -7 22 -206 22 -109 -1 -199 -4 -199 -8z"/>
<path d="M33968 7703 c-17 -4 -18 -52 -18 -818 0 -732 2 -813 16 -819 9 -3 96
-6 195 -6 l179 0 0 335 0 335 365 0 365 0 0 -329 c0 -291 2 -330 16 -335 9 -3
96 -6 195 -6 l179 0 0 825 0 825 -172 0 c-95 0 -183 -3 -196 -6 l-23 -6 1
-317 1 -316 -365 -3 -366 -2 0 325 0 325 -177 -1 c-98 -1 -186 -3 -195 -6z"/>
<path d="M37815 7688 c-3 -13 -4 -383 -3 -823 l3 -800 600 0 600 0 3 158 3
157 -411 0 -410 0 0 665 0 665 -190 0 c-188 0 -190 0 -195 -22z"/>
<path d="M39236 7703 c-3 -3 -6 -374 -6 -824 l0 -819 633 3 632 2 0 155 0 155
-415 2 c-228 2 -427 3 -442 3 l-28 0 0 180 0 180 378 2 377 3 0 150 0 150
-365 2 c-201 2 -371 3 -377 3 -10 0 -13 42 -13 175 l0 175 430 0 431 0 -3 153
-3 152 -611 2 c-336 2 -614 0 -618 -4z"/>
<path d="M41457 7703 c-4 -3 -7 -372 -7 -819 0 -713 2 -813 15 -818 8 -3 281
-6 605 -6 l590 0 0 160 0 160 -410 0 -410 0 0 665 0 665 -188 0 c-104 0 -192
-3 -195 -7z"/>
<path d="M42870 6885 l0 -826 190 1 190 2 -2 821 -3 822 -187 3 -188 3 0 -826z"/>
<path d="M43648 7704 c-17 -5 -18 -53 -18 -819 0 -732 2 -813 16 -819 9 -3
203 -6 432 -6 374 1 534 7 642 25 182 31 317 121 382 253 29 59 32 73 32 161
0 53 -3 112 -7 131 -22 98 -108 207 -206 259 l-61 32 64 59 c72 68 112 145
127 243 31 219 -106 392 -364 459 -77 20 -109 21 -552 24 -258 1 -478 0 -487
-2z m935 -327 c51 -28 79 -77 83 -141 5 -94 -54 -163 -157 -185 -56 -12 -489
-15 -489 -3 0 4 -1 87 -3 184 l-2 178 200 2 c230 3 314 -5 368 -35z m23 -642
c106 -31 161 -114 142 -214 -14 -80 -62 -125 -154 -147 -42 -10 -133 -14 -316
-14 l-257 0 -3 178 c-2 97 -2 186 0 197 3 19 9 20 269 18 206 -2 278 -6 319
-18z"/>
<path d="M45420 6886 l0 -826 179 0 c99 0 187 3 196 6 14 6 16 33 15 228 l-1
221 172 0 171 0 157 -225 157 -225 203 -2 c170 -2 202 0 199 12 -2 8 -40 67
-86 132 -204 291 -262 374 -262 381 0 4 24 20 54 35 112 59 212 187 252 322
21 73 24 236 5 315 -42 171 -171 317 -341 384 -143 57 -165 59 -632 63 l-438
5 0 -826z m805 494 c77 -15 123 -39 168 -89 42 -47 57 -93 57 -181 0 -90 -15
-135 -62 -186 -71 -77 -147 -95 -407 -98 l-171 -1 0 285 0 285 177 -2 c98 -1
205 -7 238 -13z"/>
<path d="M47635 7667 c-19 -46 -75 -171 -153 -342 -28 -60 -96 -213 -152 -340
-55 -126 -112 -253 -124 -280 -13 -28 -59 -129 -101 -225 -84 -190 -96 -216
-149 -333 -25 -56 -32 -79 -23 -83 7 -2 96 -3 197 -2 l185 3 68 160 c37 88 70
166 75 173 5 11 82 13 381 13 206 0 377 -3 381 -8 4 -4 15 -28 24 -53 10 -25
40 -100 68 -167 l50 -123 193 0 c116 0 196 4 200 10 5 8 -86 223 -187 439 -17
36 -63 139 -103 230 -40 91 -91 206 -114 254 -22 49 -41 90 -41 92 0 2 -15 36
-33 77 -49 107 -110 245 -181 403 l-62 140 -190 2 -191 2 -18 -42z m330 -649
c66 -160 122 -295 123 -299 2 -5 -109 -9 -247 -9 -138 0 -251 2 -251 4 0 4
119 293 149 361 10 22 35 84 57 137 21 54 41 98 44 98 3 0 59 -131 125 -292z"/>
<path d="M48943 7703 c-10 -4 -13 -178 -13 -824 l0 -819 193 2 192 3 0 228 0
227 171 0 172 0 158 -230 159 -231 197 1 c109 1 200 5 203 10 2 4 -76 122
-174 263 l-179 256 65 38 c120 69 213 192 248 324 19 70 19 248 0 319 -62 234
-260 388 -550 430 -70 10 -819 13 -842 3z m757 -317 c108 -14 193 -64 233
-139 18 -35 22 -58 22 -137 0 -110 -18 -157 -82 -209 -73 -60 -173 -78 -410
-73 l-143 3 0 279 0 279 143 3 c147 3 162 3 237 -6z"/>
<path d="M50400 7699 c0 -4 124 -214 277 -466 152 -252 293 -488 315 -524 l38
-66 0 -292 0 -292 190 1 190 2 0 290 0 290 118 196 c398 661 512 853 512 862
0 6 -66 10 -184 10 l-184 0 -206 -343 c-113 -189 -212 -351 -219 -361 -12 -16
-36 19 -228 340 l-215 359 -202 1 c-111 1 -202 -3 -202 -7z"/>
<path d="M7120 5642 c0 -6 94 -119 210 -252 260 -298 527 -529 703 -610 111
-51 107 -52 91 32 -8 40 -33 174 -57 298 l-42 225 -110 22 c-217 44 -459 126
-668 227 -70 33 -127 60 -127 58z"/>
<path d="M30609 4936 c-2 -2 -40 -6 -84 -10 -139 -10 -202 -25 -303 -74 -150
-71 -253 -200 -277 -344 -3 -18 -8 -45 -11 -59 -8 -40 14 -158 41 -217 48
-104 176 -200 335 -250 62 -20 277 -76 330 -86 14 -2 51 -14 84 -25 118 -42
156 -82 156 -165 0 -36 -6 -52 -30 -80 -117 -133 -534 -99 -775 63 -25 17 -45
29 -45 27 0 -1 -29 -69 -64 -149 l-65 -147 76 -44 c78 -46 254 -110 333 -120
25 -4 74 -11 110 -16 127 -19 321 -7 440 26 214 60 366 210 400 395 9 49 8
140 -3 179 -2 8 -8 28 -12 45 -19 69 -84 152 -160 205 -63 43 -224 106 -320
124 -11 2 -38 9 -60 14 -22 6 -51 13 -65 15 -69 13 -210 60 -250 85 -56 34
-80 80 -70 133 22 118 132 167 355 155 89 -4 129 -12 212 -40 56 -18 123 -45
148 -59 l46 -26 8 22 c5 12 23 58 41 102 18 44 41 102 51 128 l19 48 -83 39
c-112 53 -229 84 -357 96 -131 11 -148 13 -151 10z"/>
<path d="M37610 4915 c-100 -20 -117 -24 -173 -46 -322 -126 -528 -422 -531
-764 -1 -130 6 -188 35 -281 53 -173 150 -307 304 -422 183 -135 449 -197 700
-162 506 72 819 494 741 1000 -32 203 -176 423 -354 540 -72 47 -190 103 -242
114 -14 3 -54 12 -90 20 -80 18 -299 18 -390 1z m351 -334 c174 -55 293 -190
332 -376 17 -77 15 -195 -4 -271 -33 -135 -134 -262 -254 -319 -317 -150 -665
18 -729 353 -46 242 59 482 255 583 113 57 275 70 400 30z"/>
<path d="M47420 4927 c-3 -3 -25 -8 -49 -12 -256 -38 -520 -239 -629 -477 -52
-113 -67 -193 -66 -358 0 -181 12 -237 79 -375 81 -167 204 -288 382 -376 144
-70 248 -93 433 -93 156 0 225 12 355 61 226 84 405 262 485 481 107 295 55
618 -139 848 -110 131 -276 235 -436 273 -28 6 -61 14 -75 18 -33 7 -333 16
-340 10z m313 -348 c84 -28 134 -59 196 -121 93 -93 144 -233 142 -386 -5
-353 -303 -581 -644 -493 -165 43 -286 160 -343 331 -23 69 -26 251 -5 325 24
85 79 181 137 235 131 124 341 168 517 109z"/>
<path d="M40825 4898 c-3 -7 -4 -377 -3 -823 l3 -810 190 0 190 0 3 228 2 227
168 0 169 0 153 -222 c85 -123 158 -226 164 -230 15 -10 406 -10 406 0 0 5
-80 124 -178 264 l-178 254 55 31 c191 106 288 293 275 528 -13 241 -160 433
-392 509 -144 47 -244 55 -680 56 -265 0 -344 -3 -347 -12z m841 -332 c125
-39 183 -122 186 -262 2 -145 -66 -228 -219 -267 -27 -7 -131 -14 -235 -16
l-188 -3 0 287 0 287 203 -5 c148 -3 216 -9 253 -21z"/>
<path d="M43200 4085 l0 -826 181 1 c100 1 188 4 195 7 11 4 14 48 14 223 l0
218 228 5 c125 2 243 7 262 10 158 28 297 94 386 182 104 105 152 226 157 395
8 256 -137 462 -390 553 -125 45 -255 56 -690 57 l-343 0 0 -825z m809 490
c83 -17 148 -59 185 -118 25 -41 30 -61 34 -131 5 -101 -19 -168 -81 -221 -70
-60 -107 -68 -344 -73 l-213 -4 0 282 0 281 178 -1 c103 -1 205 -7 241 -15z"/>
<path d="M50635 4898 c-3 -7 -4 -377 -3 -823 l3 -810 622 -2 c342 -2 629 0
638 3 12 5 15 31 15 155 l0 149 -445 0 -445 0 0 185 0 185 378 2 377 3 3 147
3 148 -383 2 -382 3 1 23 c0 12 1 90 2 172 l1 150 424 0 c377 0 425 2 430 16
3 9 6 73 6 144 0 71 -3 135 -6 144 -6 14 -69 16 -620 16 -483 0 -616 -3 -619
-12z"/>
<path d="M29263 4083 l2 -818 193 -2 192 -2 0 820 0 819 -195 0 -195 0 3 -817z"/>
<path d="M32183 4083 l2 -818 190 0 190 0 3 818 2 817 -195 0 -195 0 3 -817z"/>
<path d="M32950 4080 l0 -821 190 1 190 2 2 489 3 490 400 -488 401 -488 159
0 160 0 2 818 3 817 -195 0 -196 0 3 -490 c2 -323 0 -486 -7 -479 -5 5 -186
225 -400 487 l-391 477 -162 3 -162 2 0 -820z"/>
<path d="M35276 4888 c5 -7 72 -119 150 -248 77 -129 215 -356 305 -505 l164
-270 5 -300 5 -300 193 -2 192 -2 0 292 0 292 48 80 c444 738 556 924 568 948
l15 27 -188 0 -188 0 -214 -355 c-118 -195 -217 -355 -220 -355 -3 0 -101 159
-216 353 l-211 352 -208 3 c-166 2 -206 0 -200 -10z"/>
<path d="M38963 4383 c2 -285 6 -534 10 -553 14 -73 17 -84 33 -138 63 -218
228 -372 467 -435 109 -28 354 -30 462 -3 245 62 420 232 487 473 21 75 22
100 26 626 l3 547 -190 0 -190 0 -4 -522 c-2 -288 -6 -532 -9 -543 -61 -203
-161 -278 -367 -272 -151 5 -235 54 -290 171 -46 97 -51 162 -51 685 l0 481
-195 0 -196 0 4 -517z"/>
<path d="M44882 4083 l3 -818 190 0 190 0 3 333 2 332 365 0 365 0 2 -332 3
-333 190 0 190 0 3 818 2 817 -195 0 -195 0 0 -320 0 -320 -365 0 -365 0 0
320 0 320 -195 0 -195 0 2 -817z"/>
<path d="M48743 4083 l2 -818 190 0 190 0 2 479 c1 264 4 482 5 486 2 4 176
-204 388 -462 212 -258 393 -478 403 -489 16 -17 32 -19 172 -19 l155 0 0 820
0 820 -190 0 -190 0 -2 -488 -3 -488 -399 488 -399 488 -163 0 -164 0 3 -817z"/>
</g>
</svg>
